<svg width="192" height="46" viewBox="0 0 192 46" fill="none" xmlns="http://www.w3.org/2000/svg">
<g clip-path="url(#clip0_50_118)">
<path d="M22.8769 16.2891H33.83V15.5469C33.83 9.5561 28.9261 4.69958 22.8769 4.69958C20.3086 4.69958 18.2266 6.7615 18.2266 9.30493V11.6838C18.2266 14.2272 20.3086 16.2891 22.8769 16.2891Z" fill="#94C949"/>
<path d="M16.4482 11.6837V0.836426H15.6988C9.64952 0.836426 4.74561 5.69294 4.74561 11.6837C4.74561 14.2272 6.82764 16.2891 9.3959 16.2891H11.7979C14.3662 16.2891 16.4482 14.2271 16.4482 11.6837Z" fill="#94C949"/>
<path d="M11.7979 18.0503H0.844727V18.7925C0.844727 24.7833 5.74864 29.6398 11.7979 29.6398C14.3661 29.6398 16.4482 27.5779 16.4482 25.0345V22.6556C16.4482 20.1122 14.3661 18.0503 11.7979 18.0503Z" fill="#94C949"/>
<path d="M18.2266 22.6556V33.5029H18.976C25.0253 33.5029 29.9292 28.6464 29.9292 22.6556C29.9292 20.1121 27.8472 18.0503 25.2789 18.0503H22.8769C20.3086 18.0503 18.2266 20.1122 18.2266 22.6556Z" fill="#94C949"/>
<path d="M76.0095 30.4918C76.0095 38.3751 75.0145 41.1671 71.366 43.1927C68.7679 44.6161 64.6773 45.1635 56.717 45.1635C51.0233 45.1635 47.5407 44.6708 45.3295 43.4664C42.7314 42.0431 41.1836 39.3606 41.1836 36.0212V35.8022H48.591V36.0212C48.6463 37.4446 49.3649 38.5394 50.8022 39.1416C52.0736 39.6891 54.1189 39.908 58.0438 39.908C67.7177 39.908 68.8785 38.9227 68.8785 30.4919V28.1926C68.2152 29.616 67.7177 30.273 66.8885 30.9847C65.1195 32.5175 62.0239 33.1745 56.8277 33.1745C43.3949 33.1745 40.3545 30.7109 40.3545 19.981C40.3545 9.14145 43.229 6.84216 56.9936 6.84216C62.7425 6.84216 65.7277 7.49908 67.2202 9.14145C67.9389 9.96263 68.3257 10.7838 68.8786 12.5356V7.33481H76.0097L76.0095 30.4918ZM49.0332 14.1779C48.0382 15.2727 47.6512 16.8604 47.6512 19.8166C47.6512 23.375 48.0935 25.1269 49.2543 26.167C49.973 26.7692 51.2996 27.2619 52.6816 27.4262C53.0133 27.4809 58.1542 27.6451 59.0387 27.6451C67.1094 27.6451 68.602 26.4407 68.602 20.0356C68.602 17.0246 68.3809 15.8202 67.5517 14.5611C66.4462 12.8093 64.6219 12.3713 58.8729 12.3713C52.4605 12.3713 50.1941 12.7546 49.0332 14.1779Z" fill="#414446"/>
<path d="M84.3923 14.7801C84.5029 11.9333 85.111 10.4552 86.714 9.19611C88.9804 7.38955 92.0761 6.84204 99.5941 6.84204C109.6 6.84204 112.861 7.44425 114.962 9.74354C116.51 11.4406 116.896 12.9735 116.896 17.1341V33.0101H109.6V28.9043C108.66 32.4627 106.062 33.5029 98.0463 33.5029C91.0811 33.5029 88.0961 33.1744 86.2718 32.1343C84.1712 30.9846 83.2314 28.9043 83.2314 25.5102C83.2314 18.448 85.8848 17.0247 98.9308 17.0247C106.283 17.0247 108.384 17.6816 109.489 20.3642V17.5721C109.489 12.3714 108.439 11.7145 100.479 11.7145C93.0159 11.7145 92.0209 12.0429 91.7445 14.7801L84.3923 14.7801ZM91.9103 22.3348C91.0258 22.7181 90.473 23.8129 90.473 25.1268C90.473 27.1524 91.468 28.1378 93.9556 28.521C94.84 28.6305 96.6089 28.6852 100.202 28.6852C107.775 28.6852 109.544 27.9735 109.544 24.9079C109.544 23.6487 109.047 22.6634 108.162 22.3348C106.78 21.7326 104.182 21.4589 99.7599 21.4589C95.6692 21.4589 93.2369 21.7327 91.9103 22.3348Z" fill="#414446"/>
<path d="M149.269 14.2874C149.269 12.1523 147.556 11.6596 140.093 11.6596C133.183 11.6596 131.193 12.3713 131.193 14.7253C131.193 16.9151 132.409 17.2983 139.706 17.2983H143.741C150.485 17.2983 153.084 17.6268 155.239 18.8312C157.119 19.8714 158.003 21.8422 158.003 24.9627C158.003 29.6707 156.4 31.8058 152.033 32.7912C149.822 33.2839 145.787 33.5029 138.987 33.5029C130.087 33.5029 126.992 32.9007 125.057 30.7109C123.785 29.3423 123.343 27.8094 123.343 25.0722V24.7984H130.972V25.0722C131.138 28.3021 132.133 28.6306 141.53 28.6854C145.731 28.6124 148.311 28.3569 149.269 27.919C150.043 27.5357 150.541 26.6051 150.541 25.5649C150.541 23.0466 149.048 22.4444 142.525 22.5539C139.982 22.6087 133.791 22.4991 132.354 22.4444C125.941 22.0065 123.675 20.0904 123.675 15.1086C123.675 10.6743 125.278 8.53923 129.424 7.60856C131.746 7.11584 135.394 6.84216 140.646 6.84216C148.661 6.84216 151.757 7.22541 154.078 8.48453C155.903 9.46991 156.842 11.4407 156.842 14.3422V14.5065H149.269L149.269 14.2874Z" fill="#414446"/>
<path d="M183.855 27.0429C183.081 27.7545 182.48 28.1378 180.325 28.1378C176.144 28.1378 174.866 27.2619 174.921 22.718L175.032 12.4807H186.438L188.434 7.33474H175.032L175.087 1.36755H167.68V7.33474H162.207V12.4807H167.624L167.569 23.9224L167.579 24.2959C167.643 26.7053 168.462 29.4831 169.733 30.7421C171.668 32.7129 173.47 33.5027 179.385 33.5027C184.636 33.5027 187.345 32.9005 189.114 31.3677C190.644 30.0088 191.116 28.4435 191.155 24.2087H184.612C184.566 25.8313 184.394 26.4641 183.855 27.0429Z" fill="#414446"/>
</g>
<defs>
<clipPath id="clip0_50_118">
<rect width="192" height="46" fill="white"/>
</clipPath>
</defs>
</svg>
