<svg width="308" height="36" viewBox="0 0 308 36" fill="none" xmlns="http://www.w3.org/2000/svg">
<path d="M2.44775 9.77909H4.92397V12.5094H4.98737C5.59094 10.6681 6.98802 9.55688 10.6702 9.55688C14.2889 9.55688 15.7171 10.7315 16.3841 12.795H16.4164C17.1465 10.478 19.0194 9.55688 22.5424 9.55688C27.5906 9.55688 28.7965 11.7471 28.7965 16.6033V27.1412H26.2892V16.6989C26.2892 13.3664 25.8124 11.8428 21.9711 11.8428C17.9077 11.8428 16.8608 13.1762 16.8608 16.9211V27.1412H14.3523V16.6989C14.3523 13.3664 13.8767 11.8428 9.97114 11.8428C6.00336 11.8428 4.95653 13.1439 4.95653 16.9211V27.1412H2.448L2.44775 9.77909Z" fill="#94C949"/>
<path d="M29 18.8876C29 12.1591 30.6504 10 37.5068 10C44.3955 10 46.0783 12.1591 46.0783 18.8876C46.0783 25.6484 44.3955 27.8063 37.5068 27.8063C30.6504 27.8063 29 25.6484 29 18.8876ZM37.5068 25.4573C42.555 25.4573 43.5076 24.2516 43.5076 18.8876C43.5076 13.5548 42.555 12.3167 37.5068 12.3167C32.5233 12.3167 31.5384 13.5548 31.5384 18.8876C31.5384 24.2516 32.523 25.4573 37.5068 25.4573Z" fill="#94C949"/>
<path d="M51.7842 9.77917H54.5137L60.2599 24.9198H60.3544L66.0695 9.77917H68.7359L61.974 27.1411H58.5451L51.7842 9.77917Z" fill="#94C949"/>
<path d="M70.6631 18.4756C70.6631 11.716 72.2812 9.55688 79.0108 9.55688C85.2015 9.55688 87.0431 11.4304 87.0431 17.3655V19.2702H73.1701C73.2012 24.0306 74.1228 25.173 79.2651 25.173C83.1695 25.173 84.5343 24.443 84.5343 21.4915V21.3326H87.0105V21.5548C87.0105 26.0297 84.8843 27.3632 79.2328 27.3632C72.2809 27.3632 70.6631 25.2364 70.6631 18.4756ZM84.5348 17.08V16.6033C84.5348 12.8584 83.4245 11.7471 79.0111 11.7471C74.3455 11.7471 73.2338 12.9217 73.1706 17.08H84.5348Z" fill="#94C949"/>
<path d="M98.2966 9.77917H100.932L105.377 24.9198H105.408L109.884 9.77917H112.932L117.408 24.9198H117.471L121.916 9.77917H124.455L119.123 27.1411H115.725L111.408 12.6039H111.376L107.059 27.1411H103.598L98.2966 9.77917Z" fill="#94C949"/>
<path d="M127.583 2.44714H130.059V6.38316H127.583V2.44714ZM127.583 9.77909H130.059V27.141H127.583V9.77909Z" fill="#94C949"/>
<path d="M135.705 22.6661V12.0016H133.261V9.77906H135.705V5.36755H138.181V9.77906H143.482V12.0016H138.181V22.126C138.181 24.2839 138.72 24.9197 141.037 24.9197H143.482V27.141H140.244C136.879 27.141 135.705 25.7764 135.705 22.6661Z" fill="#94C949"/>
<path d="M149.317 2.44714V12.5094H149.38C150.015 10.7313 151.508 9.55689 155.475 9.55689C160.459 9.55689 162.237 11.6206 162.237 15.8733V27.1412H159.73V16.4444C159.73 13.1765 158.555 11.8428 154.778 11.8428C150.523 11.8428 149.317 13.1439 149.317 16.9845V27.1412H146.841V2.44714H149.317Z" fill="#94C949"/>
<path d="M175.999 9.77909H178.474V12.5094H178.506C179.236 10.6681 180.442 9.55688 185.078 9.55688C191.204 9.55688 192.728 11.7471 192.728 18.4445C192.728 25.173 191.204 27.3632 185.078 27.3632C180.443 27.3632 179.332 26.3153 178.57 24.4117H178.506V33.5528H175.999V9.77909ZM184.284 25.0775C189.236 25.0775 190.158 23.9041 190.158 18.4447C190.158 13.0485 189.236 11.8428 184.284 11.8428C179.618 11.8428 178.474 13.2073 178.474 17.0479V19.8727C178.474 23.7453 179.618 25.0775 184.284 25.0775Z" fill="#94C949"/>
<path d="M196.749 21.0471V9.77917H199.225V20.476C199.225 23.7451 200.4 25.0465 204.082 25.0465C208.272 25.0465 209.447 23.7765 209.447 19.9359V9.77917H211.954V27.1411H209.447V24.412H209.383C208.749 26.1889 207.288 27.3635 203.382 27.3635C198.494 27.3635 196.749 25.2998 196.749 21.0471Z" fill="#94C949"/>
<path d="M216.642 9.77913H219.149V12.7627H219.213C219.912 10.7636 221.658 9.74805 224.61 9.74805H226.515V12.0327H224.547C220.546 12.0327 219.149 13.3662 219.149 17.1745V27.1413H216.642V9.77913Z" fill="#94C949"/>
<path d="M229.556 9.77909H232.032V12.5094H232.063C232.793 10.6681 233.999 9.55688 238.634 9.55688C244.761 9.55688 246.285 11.7471 246.285 18.4445C246.285 25.173 244.761 27.3632 238.634 27.3632C233.999 27.3632 232.889 26.3153 232.126 24.4117H232.063V33.5528H229.556V9.77909ZM237.84 25.0775C242.793 25.0775 243.713 23.9041 243.713 18.4447C243.713 13.0485 242.793 11.8428 237.84 11.8428C233.175 11.8428 232.032 13.2073 232.032 17.0479V19.8727C232.032 23.7453 233.175 25.0775 237.84 25.0775Z" fill="#94C949"/>
<path d="M249.829 18.4445C249.829 11.716 251.48 9.55688 258.336 9.55688C265.225 9.55688 266.907 11.716 266.907 18.4445C266.907 25.2053 265.225 27.3632 258.336 27.3632C251.48 27.3632 249.829 25.2053 249.829 18.4445ZM258.336 25.0142C263.384 25.0142 264.337 23.8084 264.337 18.4445C264.337 13.1116 263.384 11.8736 258.336 11.8736C253.352 11.8736 252.367 13.1116 252.367 18.4445C252.367 23.8084 253.352 25.0142 258.336 25.0142Z" fill="#94C949"/>
<path d="M271.468 25.7131C270.674 24.8551 270.325 23.8395 270.325 22.0949V21.4915H272.832V21.9038C272.832 23.0784 273.087 23.8084 273.658 24.3485C274.356 24.9831 275.563 25.173 278.166 25.173C280.451 25.173 281.944 25.0773 282.674 24.4119C283.182 23.9675 283.404 23.333 283.404 22.3805C283.404 21.3016 283.15 20.6658 282.674 20.2857C282.071 19.809 280.896 19.5868 277.689 19.4278C274.262 19.2379 272.579 18.8889 271.658 18.0632C270.864 17.3332 270.484 16.254 270.484 14.5716C270.484 12.8581 270.896 11.7158 271.753 10.9535C272.928 9.87453 274.864 9.55664 277.881 9.55664C281.214 9.55664 282.991 10.001 284.102 11.0802C284.896 11.9059 285.182 13.0483 285.182 14.635V14.8572H282.705V14.8261C282.705 13.5881 282.42 12.9215 281.975 12.5402C281.308 11.9057 279.849 11.7158 277.881 11.7158C275.753 11.7158 274.388 11.8425 273.658 12.5091C273.214 12.9215 272.991 13.5247 272.991 14.4125C272.991 15.4604 273.181 15.9051 273.626 16.2861C274.197 16.7616 275.278 16.9517 278.166 17.1105C282.007 17.3328 283.69 17.6506 284.706 18.5397C285.594 19.3331 285.912 20.6345 285.912 22.2212C285.912 24.0304 285.499 25.2048 284.578 25.9984C283.405 27.0451 281.373 27.3629 278.167 27.3629C274.389 27.3629 272.61 26.8865 271.468 25.7131Z" fill="#94C949"/>
<path d="M289.172 18.4756C289.172 11.716 290.79 9.55688 297.52 9.55688C303.711 9.55688 305.552 11.4304 305.552 17.3655V19.2702H291.679C291.711 24.0306 292.632 25.173 297.774 25.173C301.679 25.173 303.044 24.443 303.044 21.4915V21.3326H305.52V21.5548C305.52 26.0297 303.394 27.3632 297.742 27.3632C290.79 27.3632 289.172 25.2364 289.172 18.4756ZM303.044 17.08V16.6033C303.044 12.8584 301.934 11.7471 297.52 11.7471C292.855 11.7471 291.743 12.9217 291.68 17.08H303.044Z" fill="#94C949"/>
</svg>
