<svg width="192" height="46" viewBox="0 0 192 46" fill="none" xmlns="http://www.w3.org/2000/svg">
<g clip-path="url(#clip0_50_53)">
<path d="M22.8769 16.289H33.83V15.5468C33.83 9.55598 28.9261 4.69946 22.8769 4.69946C20.3086 4.69946 18.2266 6.76137 18.2266 9.30481V11.6836C18.2266 14.2271 20.3086 16.289 22.8769 16.289Z" fill="#94C949"/>
<path d="M16.4482 11.6837V0.836426H15.6988C9.64952 0.836426 4.74561 5.69294 4.74561 11.6837C4.74561 14.2272 6.82764 16.2891 9.3959 16.2891H11.7979C14.3662 16.2891 16.4482 14.2271 16.4482 11.6837Z" fill="#94C949"/>
<path d="M11.7979 18.0503H0.844727V18.7925C0.844727 24.7833 5.74864 29.6398 11.7979 29.6398C14.3661 29.6398 16.4482 27.5779 16.4482 25.0345V22.6556C16.4482 20.1122 14.3661 18.0503 11.7979 18.0503Z" fill="#94C949"/>
<path d="M18.2266 22.6556V33.5029H18.976C25.0253 33.5029 29.9292 28.6464 29.9292 22.6556C29.9292 20.1121 27.8472 18.0503 25.2789 18.0503H22.8769C20.3086 18.0503 18.2266 20.1122 18.2266 22.6556Z" fill="#94C949"/>
<path d="M76.0095 30.492C76.0095 38.3752 75.0145 41.1672 71.366 43.1928C68.7679 44.6162 64.6773 45.1636 56.717 45.1636C51.0233 45.1636 47.5407 44.6709 45.3295 43.4666C42.7314 42.0432 41.1836 39.3607 41.1836 36.0213V35.8023H48.591V36.0213C48.6463 37.4447 49.3649 38.5395 50.8022 39.1418C52.0736 39.6892 54.1189 39.9082 58.0438 39.9082C67.7177 39.9082 68.8785 38.9228 68.8785 30.492V28.1928C68.2152 29.6162 67.7177 30.2731 66.8885 30.9848C65.1195 32.5177 62.0239 33.1746 56.8277 33.1746C43.3949 33.1746 40.3545 30.711 40.3545 19.9811C40.3545 9.14157 43.229 6.84229 56.9936 6.84229C62.7425 6.84229 65.7277 7.4992 67.2202 9.14157C67.9389 9.96275 68.3257 10.7839 68.8786 12.5357V7.33493H76.0097L76.0095 30.492ZM49.0332 14.178C48.0382 15.2729 47.6512 16.8605 47.6512 19.8167C47.6512 23.3751 48.0935 25.127 49.2543 26.1672C49.973 26.7694 51.2996 27.262 52.6816 27.4263C53.0133 27.4811 58.1542 27.6453 59.0387 27.6453C67.1094 27.6453 68.602 26.4408 68.602 20.0357C68.602 17.0247 68.3809 15.8204 67.5517 14.5612C66.4462 12.8094 64.6219 12.3714 58.8729 12.3714C52.4605 12.3714 50.1941 12.7547 49.0332 14.178Z" fill="white"/>
<path d="M84.3923 14.7803C84.5029 11.9336 85.111 10.4555 86.714 9.19635C88.9804 7.3898 92.0761 6.84229 99.5941 6.84229C109.6 6.84229 112.861 7.4445 114.962 9.74378C116.51 11.4409 116.896 12.9737 116.896 17.1344V33.0104H109.6V28.9045C108.66 32.463 106.062 33.5031 98.0463 33.5031C91.0811 33.5031 88.0961 33.1747 86.2718 32.1345C84.1712 30.9849 83.2314 28.9045 83.2314 25.5104C83.2314 18.4483 85.8848 17.025 98.9308 17.025C106.283 17.025 108.384 17.6819 109.489 20.3644V17.5724C109.489 12.3716 108.439 11.7147 100.479 11.7147C93.0159 11.7147 92.0209 12.0432 91.7445 14.7804L84.3923 14.7803ZM91.9103 22.3351C91.0258 22.7183 90.473 23.8132 90.473 25.1271C90.473 27.1526 91.468 28.1381 93.9556 28.5212C94.84 28.6307 96.6089 28.6855 100.202 28.6855C107.775 28.6855 109.544 27.9738 109.544 24.9081C109.544 23.649 109.047 22.6636 108.162 22.3351C106.78 21.7329 104.182 21.4592 99.7599 21.4592C95.6692 21.4592 93.2369 21.7329 91.9103 22.3351Z" fill="white"/>
<path d="M149.269 14.2875C149.269 12.1525 147.556 11.6597 140.093 11.6597C133.183 11.6597 131.193 12.3714 131.193 14.7254C131.193 16.9152 132.409 17.2985 139.706 17.2985H143.741C150.485 17.2985 153.084 17.6269 155.239 18.8314C157.119 19.8715 158.003 21.8423 158.003 24.9628C158.003 29.6709 156.4 31.8059 152.033 32.7913C149.822 33.2841 145.787 33.503 138.987 33.503C130.087 33.503 126.992 32.9008 125.057 30.711C123.785 29.3424 123.343 27.8095 123.343 25.0723V24.7985H130.972V25.0723C131.138 28.3022 132.133 28.6307 141.53 28.6855C145.731 28.6125 148.311 28.357 149.269 27.9191C150.043 27.5358 150.541 26.6052 150.541 25.565C150.541 23.0468 149.048 22.4446 142.525 22.554C139.982 22.6088 133.791 22.4993 132.354 22.4446C125.941 22.0066 123.675 20.0905 123.675 15.1088C123.675 10.6745 125.278 8.53936 129.424 7.60869C131.746 7.11596 135.394 6.84229 140.646 6.84229C148.661 6.84229 151.757 7.22553 154.078 8.48466C155.903 9.47003 156.842 11.4409 156.842 14.3424V14.5066H149.269L149.269 14.2875Z" fill="white"/>
<path d="M183.855 27.043C183.081 27.7547 182.48 28.1379 180.325 28.1379C176.144 28.1379 174.866 27.262 174.921 22.7182L175.032 12.4809H186.438L188.434 7.33486H175.032L175.087 1.36768H167.68V7.33486H162.207V12.4809H167.624L167.569 23.9225L167.579 24.296C167.643 26.7054 168.462 29.4832 169.733 30.7422C171.668 32.7131 173.47 33.5028 179.385 33.5028C184.636 33.5028 187.345 32.9006 189.114 31.3678C190.644 30.0089 191.116 28.4436 191.155 24.2088H184.612C184.566 25.8314 184.394 26.4643 183.855 27.043Z" fill="white"/>
</g>
<defs>
<clipPath id="clip0_50_53">
<rect width="192" height="46" fill="white"/>
</clipPath>
</defs>
</svg>
